<svg xmlns="http://www.w3.org/2000/svg" xmlns:xlink="http://www.w3.org/1999/xlink" style="margin:auto;background:#f1f2f3;display:block;z-index:1;position:relative" width="1879" height="993" preserveAspectRatio="xMidYMid" viewBox="0 0 1879 993">
<g transform="translate(939.5,496.5) scale(1,1) translate(-939.5,-496.5)"><defs>
<linearGradient id="lg-0.05722164387530104" x1="0" x2="0" y1="0" y2="1">
  <stop stop-color="#5d5d5d" offset="0.38"></stop>
  <stop stop-color="#18181b" offset="0.69"></stop>
  <stop stop-color="#18181b" offset="1"></stop>
</linearGradient>
<linearGradient id="fg-lg-0.05722164387530104" x1="0" x2="0" y1="0" y2="1">
  <stop stop-color="#5d5d5d" stop-opacity="1" offset="0.38"></stop>
  <stop stop-color="#18181b" stop-opacity="0.66" offset="0.69"></stop>
  <stop stop-color="#18181b" stop-opacity="0" offset="1"></stop>
</linearGradient>
<style type="text/css">
  path { fill: none; stroke: #5d5d5d; stroke-width: 2px }
</style>
</defs>
<rect x="0" y="0" width="1879" height="993" fill="url(&quot;#lg-0.05722164387530104&quot;)"></rect><path d="M0 377.34000000000003 L-9958.699999999999 993" stroke="#5D5D5D" fill="none" stroke-width="2px"></path><path d="M36.13461538461539 377.34000000000003 L-9539.538461538461 993" stroke="#5D5D5D" fill="none" stroke-width="2px"></path><path d="M72.26923076923077 377.34000000000003 L-9120.376923076921 993" stroke="#5D5D5D" fill="none" stroke-width="2px"></path><path d="M108.40384615384616 377.34000000000003 L-8701.215384615383 993" stroke="#5D5D5D" fill="none" stroke-width="2px"></path><path d="M144.53846153846155 377.34000000000003 L-8282.053846153845 993" stroke="#5D5D5D" fill="none" stroke-width="2px"></path><path d="M180.67307692307693 377.34000000000003 L-7862.892307692307 993" stroke="#5D5D5D" fill="none" stroke-width="2px"></path><path d="M216.80769230769232 377.34000000000003 L-7443.730769230768 993" stroke="#5D5D5D" fill="none" stroke-width="2px"></path><path d="M252.94230769230768 377.34000000000003 L-7024.56923076923 993" stroke="#5D5D5D" fill="none" stroke-width="2px"></path><path d="M289.0769230769231 377.34000000000003 L-6605.407692307692 993" stroke="#5D5D5D" fill="none" stroke-width="2px"></path><path d="M325.21153846153845 377.34000000000003 L-6186.246153846153 993" stroke="#5D5D5D" fill="none" stroke-width="2px"></path><path d="M361.34615384615387 377.34000000000003 L-5767.084615384615 993" stroke="#5D5D5D" fill="none" stroke-width="2px"></path><path d="M397.4807692307692 377.34000000000003 L-5347.923076923076 993" stroke="#5D5D5D" fill="none" stroke-width="2px"></path><path d="M433.61538461538464 377.34000000000003 L-4928.761538461537 993" stroke="#5D5D5D" fill="none" stroke-width="2px"></path><path d="M469.75 377.34000000000003 L-4509.599999999999 993" stroke="#5D5D5D" fill="none" stroke-width="2px"></path><path d="M505.88461538461536 377.34000000000003 L-4090.4384615384606 993" stroke="#5D5D5D" fill="none" stroke-width="2px"></path><path d="M542.0192307692307 377.34000000000003 L-3671.2769230769227 993" stroke="#5D5D5D" fill="none" stroke-width="2px"></path><path d="M578.1538461538462 377.34000000000003 L-3252.115384615384 993" stroke="#5D5D5D" fill="none" stroke-width="2px"></path><path d="M614.2884615384615 377.34000000000003 L-2832.953846153845 993" stroke="#5D5D5D" fill="none" stroke-width="2px"></path><path d="M650.4230769230769 377.34000000000003 L-2413.792307692307 993" stroke="#5D5D5D" fill="none" stroke-width="2px"></path><path d="M686.5576923076923 377.34000000000003 L-1994.6307692307682 993" stroke="#5D5D5D" fill="none" stroke-width="2px"></path><path d="M722.6923076923077 377.34000000000003 L-1575.4692307692312 993" stroke="#5D5D5D" fill="none" stroke-width="2px"></path><path d="M758.8269230769231 377.34000000000003 L-1156.3076923076915 993" stroke="#5D5D5D" fill="none" stroke-width="2px"></path><path d="M794.9615384615385 377.34000000000003 L-737.1461538461535 993" stroke="#5D5D5D" fill="none" stroke-width="2px"></path><path d="M831.0961538461538 377.34000000000003 L-317.9846153846156 993" stroke="#5D5D5D" fill="none" stroke-width="2px"></path><path d="M867.2307692307693 377.34000000000003 L101.17692307692414 993" stroke="#5D5D5D" fill="none" stroke-width="2px"></path><path d="M903.3653846153846 377.34000000000003 L520.3384615384621 993" stroke="#5D5D5D" fill="none" stroke-width="2px"></path><path d="M939.5 377.34000000000003 L939.5 993" stroke="#5D5D5D" fill="none" stroke-width="2px"></path><path d="M975.6346153846154 377.34000000000003 L1358.661538461538 993" stroke="#5D5D5D" fill="none" stroke-width="2px"></path><path d="M1011.7692307692307 377.34000000000003 L1777.8230769230777 993" stroke="#5D5D5D" fill="none" stroke-width="2px"></path><path d="M1047.9038461538462 377.34000000000003 L2196.9846153846156 993" stroke="#5D5D5D" fill="none" stroke-width="2px"></path><path d="M1084.0384615384614 377.34000000000003 L2616.1461538461535 993" stroke="#5D5D5D" fill="none" stroke-width="2px"></path><path d="M1120.173076923077 377.34000000000003 L3035.3076923076915 993" stroke="#5D5D5D" fill="none" stroke-width="2px"></path><path d="M1156.3076923076924 377.34000000000003 L3454.469230769231 993" stroke="#5D5D5D" fill="none" stroke-width="2px"></path><path d="M1192.4423076923076 377.34000000000003 L3873.630769230769 993" stroke="#5D5D5D" fill="none" stroke-width="2px"></path><path d="M1228.576923076923 377.34000000000003 L4292.792307692309 993" stroke="#5D5D5D" fill="none" stroke-width="2px"></path><path d="M1264.7115384615386 377.34000000000003 L4711.953846153845 993" stroke="#5D5D5D" fill="none" stroke-width="2px"></path><path d="M1300.8461538461538 377.34000000000003 L5131.115384615385 993" stroke="#5D5D5D" fill="none" stroke-width="2px"></path><path d="M1336.9807692307693 377.34000000000003 L5550.276923076923 993" stroke="#5D5D5D" fill="none" stroke-width="2px"></path><path d="M1373.1153846153845 377.34000000000003 L5969.438461538462 993" stroke="#5D5D5D" fill="none" stroke-width="2px"></path><path d="M1409.25 377.34000000000003 L6388.5999999999985 993" stroke="#5D5D5D" fill="none" stroke-width="2px"></path><path d="M1445.3846153846155 377.34000000000003 L6807.7615384615365 993" stroke="#5D5D5D" fill="none" stroke-width="2px"></path><path d="M1481.5192307692307 377.34000000000003 L7226.923076923076 993" stroke="#5D5D5D" fill="none" stroke-width="2px"></path><path d="M1517.6538461538462 377.34000000000003 L7646.084615384616 993" stroke="#5D5D5D" fill="none" stroke-width="2px"></path><path d="M1553.7884615384614 377.34000000000003 L8065.246153846156 993" stroke="#5D5D5D" fill="none" stroke-width="2px"></path><path d="M1589.923076923077 377.34000000000003 L8484.407692307692 993" stroke="#5D5D5D" fill="none" stroke-width="2px"></path><path d="M1626.0576923076924 377.34000000000003 L8903.569230769228 993" stroke="#5D5D5D" fill="none" stroke-width="2px"></path><path d="M1662.1923076923076 377.34000000000003 L9322.730769230768 993" stroke="#5D5D5D" fill="none" stroke-width="2px"></path><path d="M1698.326923076923 377.34000000000003 L9741.892307692307 993" stroke="#5D5D5D" fill="none" stroke-width="2px"></path><path d="M1734.4615384615386 377.34000000000003 L10161.053846153847 993" stroke="#5D5D5D" fill="none" stroke-width="2px"></path><path d="M1770.5961538461538 377.34000000000003 L10580.215384615383 993" stroke="#5D5D5D" fill="none" stroke-width="2px"></path><path d="M1806.7307692307693 377.34000000000003 L10999.376923076923 993" stroke="#5D5D5D" fill="none" stroke-width="2px"></path><path d="M1842.8653846153845 377.34000000000003 L11418.53846153846 993" stroke="#5D5D5D" fill="none" stroke-width="2px"></path><path d="M1879 377.34000000000003 L11837.699999999999 993" stroke="#5D5D5D" fill="none" stroke-width="2px"></path><g>
<path d="M0 377.34000000000003 L1879 377.34000000000003" stroke="#5D5D5D" fill="none" stroke-width="2px"></path>
<animateTransform attributeName="transform" type="translate" repeatCount="indefinite" calcMode="linear" keyTimes="0;1" values="0 0;0 29.143668639053253" begin="0s" dur="2.0408163265306123s"></animateTransform>

</g><g>
<path d="M0 406.4836686390533 L1879 406.4836686390533" stroke="#5D5D5D" fill="none" stroke-width="2px"></path>
<animateTransform attributeName="transform" type="translate" repeatCount="indefinite" calcMode="linear" keyTimes="0;1" values="0 0;0 58.2873372781065" begin="0s" dur="2.0408163265306123s"></animateTransform>

</g><g>
<path d="M0 464.7710059171598 L1879 464.7710059171598" stroke="#5D5D5D" fill="none" stroke-width="2px"></path>
<animateTransform attributeName="transform" type="translate" repeatCount="indefinite" calcMode="linear" keyTimes="0;1" values="0 0;0 87.43100591715975" begin="0s" dur="2.0408163265306123s"></animateTransform>

</g><g>
<path d="M0 552.2020118343196 L1879 552.2020118343196" stroke="#5D5D5D" fill="none" stroke-width="2px"></path>
<animateTransform attributeName="transform" type="translate" repeatCount="indefinite" calcMode="linear" keyTimes="0;1" values="0 0;0 116.57467455621301" begin="0s" dur="2.0408163265306123s"></animateTransform>

</g><g>
<path d="M0 668.7766863905326 L1879 668.7766863905326" stroke="#5D5D5D" fill="none" stroke-width="2px"></path>
<animateTransform attributeName="transform" type="translate" repeatCount="indefinite" calcMode="linear" keyTimes="0;1" values="0 0;0 145.71834319526627" begin="0s" dur="2.0408163265306123s"></animateTransform>

</g><g>
<path d="M0 814.4950295857989 L1879 814.4950295857989" stroke="#5D5D5D" fill="none" stroke-width="2px"></path>
<animateTransform attributeName="transform" type="translate" repeatCount="indefinite" calcMode="linear" keyTimes="0;1" values="0 0;0 174.86201183431953" begin="0s" dur="2.0408163265306123s"></animateTransform>

</g><g>
<path d="M0 989.3570414201184 L1879 989.3570414201184" stroke="#5D5D5D" fill="none" stroke-width="2px"></path>
<animateTransform attributeName="transform" type="translate" repeatCount="indefinite" calcMode="linear" keyTimes="0;1" values="0 0;0 204.0056804733728" begin="0s" dur="2.0408163265306123s"></animateTransform>

</g><rect x="0" y="0" width="1879" height="993" fill="url(&quot;#fg-lg-0.05722164387530104&quot;)"></rect></g>
</svg>